<?xml version="1.0" encoding="UTF-8"?>
<svg version="1.1" viewBox="0 0 1600 800" width="1280" height="1280" xmlns="http://www.w3.org/2000/svg">
<path transform="translate(0)" d="m0 0h1600v800h-1600z" fill="#F9F9FA"/>
<path transform="translate(579,383)" d="m0 0h3v4l-10 4h-2l2 4 7-2 5-1 5 4-15 5-2 9-4 6h42l-11-14-3-4v-2l4-1 10 12 11 14 14 17 13 16 11 14 26 32 11 14 2 5-3 5v11l3 6 5 4 9 3-3 8h38v4h-41l-3 9-4 7-3 7-3 8v102l4 6 8 21-1 6h25l5 4 1 2v6l-4 6h-193l1 6-1 2h-7l-12-5-3-3h-130l-5 3-4 1h-11l-2-2v-3h-110l-5-5v-6l5-6 33-2-3-3-1-3v-252l1-21 4-4 2-1h212l6 9 5 4 10 2 9-2-7-8-9-9-7-8-7-7-7-8-6-6 1-3 12-7 10-3h12l12 3 4-1 7-7 5-3h9l8 1z" fill="#6666EC"/>
<path transform="translate(959,385)" d="m0 0 10 2 14 5 14 4 25 8 20 6 18 6 13 4 16 5 12 4 1 1 1 48 3 3v7l-2 2 1 6 11 20v5l-2 2h-29l-2-2 1-5 11-23 1-4h-2l-1-7 4-4 1-42-11 4-14 4-16 5-5 2-11 3-5 2-14 4-4 2-1 44 6 2 11 8 9 10 7 14 3 10v4h110l9 15 8 10 7 8v19l-5 5h-15l3 4 1 21 6-8 8-7 7-7 5-1-4 6-9 12-8 14-7 16-5 15-5 27-1 11 14-1h89l-3-25-5-20-6-16-9-17-10-14-9-10-6-5v-7l9-8 7-8 8-12 6-10 5-10 7-21 4-20 2-19h-125l-2-2v-26l2-2h146l2 2v26l-1 2h-10v10l-2 16-7 23-8 17-10 15-9 11-8 8-10 8-1 1v5l10 8 14 14 11 16 7 12 8 21 4 17 2 20 9 1 1 1v27l-1 1h-149v-28l2-1 9-1 4-27h-75l-8-1-1-20v-29l-71 1-36-1v35l35 1 1 35h71v36l-1 1h-106v-58h-182l-5-3-1-11v-32l1-26 3-2 5-1 29-1-3-3v-49l5-4h17v-2h-2l-2-6v-85l-11-3-36-11-15-5-13-4-9-3-1-5 7-3 18-6 17-5 70-22 24-7 7 1 14 5 17 3h14l15-3 15-6z" fill="#5B57D5"/>
<path transform="translate(906,230)" d="m0 0h22l17 4 16 8 10 7 8 7 9 12 8 16 4 16 1 8v12l-3 17-6 15-7 11-9 10-9 8-13 8-13 5-15 3h-14l-17-3-14-5-7-1-33 10-68 21-15 5-17 5-2 1v5l12 3 25 8 26 8 21 7 1 85 1 6h2v2l-17 1-4 3v49l3 4-30 1-7 2-1 26v36l1 7 4 2 182 1v58h-225l-2-2 3-4v-6l-5-5-25-1-1-9-9-22-2-2v-102l8-18 6-13h41v-4h-38l1-5 1-3-8-2-7-6-2-5v-11l3-5-2-5-14-17-11-14-9-11-13-16-11-14-14-17-11-14-9-11-3-4h-4l8 11 6 7v2h-42l4-8 1-7 10-4 4-2-5-2-8 3-3-1-1-4 10-4h2v-4l-13 5-8-1h-9l-8 6-5 5-9-2-13-2v-47l1-1h65l1-3 1 21 6 5h104l5-3 2-3v-53l-3-5-3-2-79-1v-6l3-3 14-1 202-1 8-18 7-11 11-12 14-10 11-5 14-4z" fill="#F8F9FA"/>
<path transform="translate(326,498)" d="m0 0h96l17 1v2h-3l3 20 3 10 3 3 2 1-1-5v-13l8-5 8-2h9l6 3 3 5 1 10 3-3v-16l-4-9v-2h182v117l-12 26 7 1 6 4 4 6v10l-4 7-1 24h-2v-22l-4 2h-10l-2-1-1 21-1 1-34 1h-36l-2-10-5-5-3-1h-28l-22 3-9 1-6-11-1-7-10-4 2-8 5-2h4l4-23 3-13 4-25v-14l-10-4-11-2-6 15h-3l-3-2-6 3-7-1-4-1h-4l-6-13v-3l-16 5-5 2 1 18 4 32 2 13-5 4-2 3v6l9 2 1 5v16l-9 6-6-1-21-6-22-4-7-1h-14l-6 3-3 4-1 7 4 8 4 5h-28l-2-2z" fill="#F9F9FA"/>
<path transform="translate(592,372)" d="m0 0 6 1 6 5 2 9 2 6h139v4l-134 1 11 14 2 4h121v4h-116l10 13 4 5h106l25 8 26 8 21 7 1 85 1 6h2v2l-17 1-4 3v49l3 4-30 1-7 2-1 26v36l1 7 4 2 182 1v58h-225l-2-2 3-4v-6l-5-5-25-1-1-9-9-22-2-2v-102l8-18 6-13h41v-4h-38l1-5 1-3-8-2-7-6-2-5v-11l3-5-2-5-14-17-11-14-9-11-13-16-11-14-14-17-11-14-9-11-3-4h-4l8 11 6 7v2h-42l4-8 1-7 10-4 4-2-5-2-8 3-3-1-1-4 10-4h2v-7l5-6z" fill="#F9F9FA"/>
<path transform="translate(571,240)" d="m0 0h277l26 1-5 5-10 8-7 8-7 11-8 18-1 1-202 1-14 1-2 2-1 6h79l5 4 2 4v53l-4 5-4 2h-104l-7-6-1-29h-19l-6-9 2-5 8-10-2-4-10-9-8 1v-34l1-19 6-5z" fill="#B2C4FC"/>
<path transform="translate(959,385)" d="m0 0 10 2 14 5 14 4 25 8 20 6 18 6 13 4 16 5 12 4 1 1 1 48 3 3v7l-2 2 1 6 11 20v5l-2 2h-29l-2-2 1-5 11-23 1-4h-2l-1-7 4-4 1-42-11 4-14 4-16 5-5 2-11 3-5 2-14 4-11 4-54 17-36 11-12-3-57-18-26-8-2-1v84h-1v-85l-11-3-36-11-15-5-13-4-9-3-1-5 7-3 18-6 17-5 70-22 24-7 7 1 14 5 17 3h14l15-3 15-6z" fill="#6666EC"/>
<path transform="translate(824,462)" d="m0 0 12 3 57 18 26 8 12-3 80-25 6-1v43l-20-4h-9l-14 3-9 4-11 7-9 9-8 14-4 16v14l4 16 5 10 8 10 7 6v1h-136v74l-5 1h-40l-5-3-1-11v-32l1-26 3-2 5-1 29-1-3-3v-49l5-4h17v-2h-2l-1-2z" fill="#4340A6"/>
<path transform="translate(1136,461)" d="m0 0h146l2 2v26l-1 2h-10v10l-2 16-7 23-8 17-10 15-9 11-8 8-10 8-1 1v5l10 8 14 14 11 16 7 12 8 21 4 17 2 20 9 1 1 1v27l-1 1h-149v-28l2-1 9-1 4-27h-30v-75h-32l-22-15-16-11 4-20v-11h110l9 15 8 10 7 8v19l-5 5h-15l3 4 1 21 6-8 8-7 7-7 5-1-4 6-9 12-8 14-7 16-5 15-5 27-1 11 14-1h89l-3-25-5-20-6-16-9-17-10-14-9-10-6-5v-7l9-8 7-8 8-12 6-10 5-10 7-21 4-20 2-19h-125l-2-2v-26z" fill="#4340A6"/>
<path transform="translate(906,230)" d="m0 0h22l17 4 16 8 10 7 8 7 9 12 8 16 4 16 1 8v12l-3 17-6 15-7 11-9 10-9 8-13 8-13 5-15 3h-14l-17-3-14-5-10-6-9-7-10-10-9-14-5-12-3-11-1-6v-19l3-15 7-16 7-11 11-12 14-10 11-5 14-4z" fill="#FBC244"/>
<path transform="translate(326,498)" d="m0 0h96l17 1v2h-3l3 20 3 10 1 3v4l13 17 2 8 5 9 3 12 3 2-7-1-4-1h-4l-6-13v-3l-16 5-5 2 1 18 4 32 2 13-5 4-2 3v6l9 2 1 5v16l-9 6-6-1-21-6-22-4-7-1h-14l-6 3-3 4-1 7 4 8 4 5h-28l-2-2z" fill="#F9F9FA"/>
<path transform="translate(1146,491)" d="m0 0h115v10l-3 21-4 14-3 10-7 15-6 10-8 12-4 5-5 5-7 6v7l8 7 9 10 12 19 8 17 6 20 3 15 1 9v10l-103 1v-11l5-27 6-18 10-21 9-13 8-10-5 2-21 21-1-22-2-4 15-1 4-4v-19l-10-11-10-15-8-15-6-16-4-16-2-18z" fill="#F9F9FA"/>
<path transform="translate(445,568)" d="m0 0h3l7 16 4-1 6 2 6-1 5-2 4 3 6-15 4-1 16 5 3 2v14l-6 36-3 13-3 12-8 2-2 8 9 3 1 1 2 9 4 8 9-1 22-3h28l6 3 4 7 1 5-4 8-7 6-14 8-16 6-5 1h-7l-8-7-8-6h-3l6 3 2 2-1 9-4 4-4 1-10-1-85-1-3-4 1-6-7-1-14-4-17-9-9-7-7-8-2-5 2-9 6-5 3-1h14l24 4 23 6 5 2 5-1 7-4v-21h-7l-3-2v-6l7-8-3-20-4-36v-6l9-4z" fill="#FBC244"/>
<path transform="translate(579,383)" d="m0 0h3v4l-10 4h-2l2 4 7-2 5-1 5 4-15 5-2 9-4 6h42l-11-14-3-4v-2l4-1 10 12 11 14 14 17 13 16 11 14 26 32 11 14 2 5-3 5v11l3 6 5 4 9 3-3 8h38v4h-41l-3 9-4 7-3 7-3 8v102l4 6 8 21-1 5-1 1h-103l-2-1v-7l8-21 2-3 34-1 1-22 3 1h10l4-1v22h2v-24l4-7v-10l-4-6-7-4-5-1 2-6 10-22v-133l-12-15-11-14-12-14-11-14-2-2h-52l-1 2 2 6v16l-4 13-6 9-4 3-15-15v-2h-2l-7-8-9-9-7-8-7-7-7-8-6-6 1-3 12-7 10-3h12l12 3 4-1 7-7 5-3h9l8 1z" fill="#6666EC"/>
<path transform="translate(562,420)" d="m0 0h52l8 9 11 14 12 14 13 17 5 6v133h-1v-115h-182l5 11v16l-2 3h-2l-3-12-4-4-3-1h-9l-10 3-5 3v18l-5-2-3-9-3-14v-9h3v-2l-113-1v-27l1-2 92-1h71l60 1 7-9 4-10 1-5v-16l-2-7z" fill="#A1A4FC"/>
<path transform="translate(988,500)" d="m0 0h9l15 3 14 7 9 7 8 9 7 14 3 10 1 7v8l-4 20 15 10 37 25 9 7 3 4 1 9-4 8-6 4-7 1-12-6-14-10-36-24-4-3-5 2-14 7-12 3h-15l-16-4-12-6-12-11-8-12-5-15-1-6v-14l4-16 6-11 9-10 7-6 11-6 12-4z" fill="#FBC244"/>
<path transform="translate(836,291)" d="m0 0 1 2-2 11v19l3 14 5 13 7 12 11 12 7 6 9 6-3 2-33 10-68 21h-1l-1-54-1-18-67-1-1-36-3-5-3-2-79-1v-6l3-3 14-1z" fill="#F9F9FA"/>
<path transform="translate(1090,87)" d="m0 0h13l16 3 12 5 8 4v2l4 1 10 8 9 11 6 10 2 7-30 11-3-4-6-9-8-7-12-6-4-1h-21l-11 4-10 8-8 10-4 9-1 7v13l2 10 6 11 4 4v2l4 2v2h3v2l5 1 6 3 17 2 16-3 11-7 7-7 5-8 3-9 1-6v-11l-1-8 21-8 8-3h3l3 14v22l-5 18-8 15-8 10-11 10-3 2h-3v2l-10 5-15 4-7 2h-19l-17-4-19-10-12-11-6-7-4-6-4-8-6-16-1-6v-23l3-11 5-14 8-12 10-11 14-10 14-6 11-3z" fill="#F6F7FA"/>
<path transform="translate(795,128)" d="m0 0h9l10 3 7 6 3 7 1 18-2 10-5 5h-6l-1-2v-11l1-19-5-3-4-1h-8l-7 4-4 6-3 10v13l3 6 6 3 7-1 6-5 5 5 7 1 9-2v48l-33 1-105-1-1-41v-16l1-38h84l-2 5-4 9-2 12v10l3 12 4 8 8 7 8 3 4 1h14l8-3-1-4-7 1h-13l-10-5-7-8-3-10v-18l4-11 6-8 7-5z" fill="#FBC244"/>
<path transform="translate(572,695)" d="m0 0h36l-9 23-1 7h106l25 1 5 4 1 2v6l-4 6h-193l1 6-1 2h-7l-12-5-3-3h-130l-5 3-4 1h-11l-2-2v-3h-110l-5-5v-6l5-6 122-1 12-7 5-4 10 2v6l2 3 85 1 12 1 4-1 2-6v-6l-4-3-4-2 4-1 8 6 8 7h7l14-4 16-8 10-7z" fill="#6767ED"/>
<path transform="translate(800,686)" d="m0 0h158v58h-156l-3-3v-54z" fill="#FBC244"/>
<path transform="translate(1146,491)" d="m0 0h115v10l-3 21-3 12-2-1-16 4h-14l-24-4-29-6-6-1 3 12 4 12 8 16 10 15 9 10 9 9v11l2 26v25l-2 15-2 5-26 14-17 10-4 3 1-11 4-22 6-18 10-21 9-13 8-10-5 2-21 21-1-22-2-4 15-1 4-4v-19l-10-11-10-15-8-15-6-16-4-16-2-18z" fill="#9DB2FA"/>
<path transform="translate(591,302)" d="m0 0h105l5 4 2 4v53l-4 5-4 2h-104l-7-6v-55l5-6z" fill="#7576EA"/>
<path transform="translate(1053,554)" d="m0 0h110l9 15 8 10 7 8v19l-5 5h-52v75h-11v-75h-32l-22-15-16-11 4-20z" fill="#423FA5"/>
<path transform="translate(821,611)" d="m0 0h97l1 7v65l-1 2 2 1h-104v-1h5z" fill="#6666ED"/>
<path transform="translate(290,440)" d="m0 0h212l8 12h-214v261h95l2 2-11 8-6 3h-108v-1l19-1-3-3-1-3v-252l1-21 4-4z" fill="#A1A6FC"/>
<path transform="translate(986,513)" d="m0 0h14l13 4 4 2v30l-4 5h28v14l-3 11-5 10-8 9-11 7-13 4h-16l-13-4-11-7-8-9-6-13-2-7v-16l4-12 6-10 9-9 14-7z" fill="#333081"/>
<path transform="translate(958,636)" d="m0 0h107l1 29v20h8v1h-9v21l-37 1h-34l-1-1v-35h-35l-1-1v-33z" fill="#7475EA"/>
<path transform="translate(572,695)" d="m0 0h36l-9 23-1 7h106l25 1 5 4 1 2v6l-4 6h-193l-6-11-11-10v-1l14-3 15-6 12-7 6-5z" fill="#6969ED"/>
<path transform="translate(1090,87)" d="m0 0h13l16 3 12 5 8 4v2l4 1 10 8 9 11 6 10 2 7-10 3-9-15-9-10-10-7-12-6-11-3h-21l-16 4-12 6-10 8-8 9-4 7-5 10-2 7-1 9v12l3 17 4 10v2h2l6 9 10 10 2 1v2h3v2l5 1 8 4 13 3h22l13-3 8-4h3v-2l10-7 7-7 7-11 5-10 3-13v-19l-2-9v-3l8-3h3l3 14v22l-5 18-8 15-8 10-11 10-3 2h-3v2l-10 5-15 4-7 2h-19l-17-4-19-10-12-11-6-7-4-6-4-8-6-16-1-6v-23l3-11 5-14 8-12 10-11 14-10 14-6 11-3z" fill="#6A6BED"/>
<path transform="translate(702,569)" d="m0 0h2v10h43v4h-43v19h43v5h-43v19h43v4h-43l1 81 82-1 2-1 1-23h10v58h-67l-2-2 3-4v-6l-5-5-25-1-1-9-9-22-2-2v-102l8-18z" fill="#B4C6FC"/>
<path transform="translate(579,383)" d="m0 0h3v4l-10 4h-2l2 4 7-2 5-1 5 4-15 5-2 9-4 6h42l-11-14-3-4v-2l4-1 10 12 11 14 14 17 13 16 11 14 26 32 11 14 2 5-3 2-9-11-8-10-11-14-11-13-9-12-11-13-11-14-11-13h-52l-1 2 2 6v16l-4 13-6 9-4 3-15-15v-2h-2l-7-8-9-9-7-8-7-7-7-8-6-6 1-3 12-7 10-3h12l12 3 4-1 7-7 5-3h9l8 1z" fill="#333081"/>
<path transform="translate(605,389)" d="m0 0 3 2v2h139v4l-134 1 11 14 2 4h121v4h-116l10 13 4 5 102 1 1 4-1 1-44 1 1 4v13h42l1 5h-43v19h43v4h-43v19h43v4h-40l-7 2-9-11-13-16-11-14-14-17-7-9-13-16-11-14-13-16-6-8 1-4z" fill="#4643AC"/>
<path transform="translate(871,553)" d="m0 0h61l2 21 5 15 9 13 9 8v1h-95v-57z" fill="#333081"/>
<path transform="translate(1065,686)" d="m0 0h84l-1 11-2 16-1 1-11 1v29h-70z" fill="#FBC244"/>
<path transform="translate(445,568)" d="m0 0h3l7 16 4-1 6 2 6-1 5-2 4 3 6-15 4-1 16 5 3 2v14l-6 36-3 13-3 12-1-3 3-19-16 2-9 3-8 1-7-3-8-2h-13v5l-5 2-3-20-4-36v-6l9-4z" fill="#4441A7"/>
<path transform="translate(790,451)" d="m0 0 16 4 17 6 1 85 1 6h2v2l-17 1-4 3v49l3 4h-19z" fill="#B1C3FC"/>
<path transform="translate(993,707)" d="m0 0h72v36l-1 1h-106v-36z" fill="#9DB2FA"/>
<path transform="translate(779,611)" d="m0 0h42v74l-5 1h-40l-5-3-1-11v-32l1-26 3-2z" fill="#5B57D5"/>
<path transform="translate(791,349)" d="m0 0h51l9 14 9 10 8 7 9 6-3 2-33 10-48 15h-3v-62z" fill="#B2C4FC"/>
<path transform="translate(562,420)" d="m0 0h52l8 9 11 14 12 14 8 10v2h-99l-2-2 6-9 4-13v-16l-2-7z" fill="#6666EC"/>
<path transform="translate(1091,109)" d="m0 0h12l10 2 16 8 9 7 9 12 2 7-9 4-3-4-6-9-8-7-12-6-4-1h-21l-11 4-10 8-8 10-4 9-1 7v13l2 10 6 11 4 4v2l4 2v2h3v2l5 1 6 3 17 2 16-3 11-7 7-7 5-8 3-9 1-6v-11l-1-8 7-3h4l2 7v20l-3 10-6 12-11 12-7 5-8 4-13 4h-18l-11-3-13-7-10-9-6-8-4-8-3-7-1-5v-21l4-12 6-11 10-11 11-7 7-3z" fill="#6A6BED"/>
<path transform="translate(643,671)" d="m0 0 3 1h10l4-1v22h25l9 1 5 10 6 16-1 5-1 1h-103l-2-1v-7l8-21 2-3 34-1z" fill="#333081"/>
<path transform="translate(1130,611)" d="m0 0h37l3 4 1 21 6-8 8-7 7-7 5-1-4 6-9 12-8 14-7 16-5 15-5 27-1 11h-13l3-23 1-5h-19z" fill="#5B57D5"/>
<path transform="translate(1092,132)" d="m0 0h9l9 3 8 4 7 7 3 5-1 3-11 3-1-4h-7l-9 12v2l12 3 4-1 3-8 12-4 1 2v16l-6 12-5 6-10 6-6 2h-14l-10-4-9-7-5-8-3-7v-17l6-12 8-8 11-5z" fill="#6A6AED"/>
<path transform="translate(704,672)" d="m0 0h66l2 11 4 2 14 1v23l-3 2h-82l-1-2z" fill="#FBC244"/>
<path transform="translate(772,445)" d="m0 0 18 6v160l-18 2-1-167z" fill="#FBC244"/>
<path transform="translate(1086,121)" d="m0 0h21l11 4 10 7 8 9 3 6-1 3-10 3-6-9-7-6-9-4-5-1h-9l-11 4-6 4-7 8-4 9v17l6 12 4 5 6 4 10 4h14l10-4 8-6 4-7 4-8v-18l11-4 2 8v11l-2 11-7 12-9 9-10 6-16 3-17-2-11-5v-2h-3l-7-8-7-10-2-6-1-7v-13l2-10 6-10 9-10 9-6z" fill="#F7F7FA"/>
<path transform="translate(438,629)" d="m0 0h13l11 3 4 2 8-1 9-3 6-1h10v8l-3 14-7 2-2 8 9 3 1 1v8l-12 5-9 2h-16l-15-3-8-3-1-21h-7l-3-2v-6l6-7 5-3v-5z" fill="#FBC244"/>
<path transform="translate(793,121)" d="m0 0h13l10 3 8 6 4 5 4 9 2 9v10l-3 9-4 6-5 4-7 2-7-1-6-5-5 5-7 1-7-4-3-6v-13l4-12 4-5 7-4h8l8 3 2 2-1 19v13l7-2 4-5 1-15-1-11-4-8-7-5-8-2h-9l-10 3-7 6-6 12-1 4v18l3 10 7 8 9 4h13l7-1 2 2-1 4-8 3h-14l-10-3-8-6-6-8-3-9-1-6v-10l2-12 6-12 7-8 7-4z" fill="#6C6CEE"/>
<path transform="translate(591,302)" d="m0 0h105l5 4 2 4v53l-4 5-4 2h-104l-7-6v-55l5-6zm2 8-1 1v50h102v-50l-1-1z" fill="#6969ED"/>
<path transform="translate(1205,606)" d="m0 0h1l2 14 1 17v25l-2 15-2 5-26 14-17 10-4 3 1-11 4-22 6-18 10-21 9-13 11-13z" fill="#9DB2FA"/>
<path transform="translate(592,372)" d="m0 0 6 1 6 5 2 9-2 4 1 5 12 14 11 14 13 16 8 10 11 14 9 11 13 16 11 14 7 9 7-2h8l8 4 5 8 1 9-3 7-7 6-8 2-8-2-7-6-2-5v-11l3-5-2-5-14-17-11-14-9-11-13-16-11-14-14-17-11-14-9-11-3-4h-4l8 11 6 7v2h-42l4-8 1-7 10-4 4-2-5-2-8 3-3-1-1-4 10-4h2v-7l5-6z" fill="#EFEFFA"/>
<path transform="translate(958,636)" d="m0 0h36v36h35v36h-35l-1-1v-35h-35l-1-1v-33z" fill="#F7F8FA"/>
<path transform="translate(663,481)" d="m0 0 5 5 13 16 8 10 6 8v15l1 8-7 15-16 34-9 19h-1z" fill="#6565EC"/>
<path transform="translate(1215,607)" d="m0 0 7 6 9 10 12 19 8 17 6 20 3 15 1 15-7-6-10-9-14-9-12-6-3-4-2-7-1-10v-26l2-22z" fill="#9DB2FA"/>
<path transform="translate(862,626)" d="m0 0h16l9 2 10 7 5 6 1 3v9l-6 10-11 7-9 2h-13l-10-2-9-6-6-7-1-3v-12l9-10 9-5z" fill="#F9F9FA"/>
<path transform="translate(986,513)" d="m0 0h14l13 4 4 2v30l-4 5h-66l-1-5 5-12 6-8 7-7 14-7z" fill="#4441A8"/>
<path transform="translate(810,554)" d="m0 0h36v57h-37l-4-4v-49z" fill="#333081"/>
<path transform="translate(1261,491)" d="m0 0h12v10l-2 16-7 23-8 17-10 15-9 11-8 8-10 8-1 1v5l10 8 14 14 11 16 7 12 8 21 4 17 2 21h-102v-1h89l-3-25-5-20-6-16-9-17-10-14-9-10-6-5v-7l9-8 7-8 8-12 6-10 5-10 7-21 4-20z" fill="#6360DA"/>
<path transform="translate(703,336)" d="m0 0h84l3 3v74l-10 4-8 2-1-54-1-18-67-1z" fill="#FBC244"/>
<path transform="translate(1139,554)" d="m0 0h24l9 15 8 10 7 8v19l-5 5h-40l-1-56z" fill="#333081"/>
<path transform="translate(646,439)" d="m0 0h101l1 4-1 1-44 1 1 4v13h42l1 5h-43v19h43v4h-43v19h43v4h-44l-6-9-5-6-1-45-14-1h-22l-9-12z" fill="#A1A5FC"/>
<path transform="translate(702,569)" d="m0 0h2v10h43v4h-43v19h43v5h-43v19h43v4h-43v82l-2 2-8-19-2-2v-102l8-18z" fill="#A2A6FC"/>
<path transform="translate(254,726)" d="m0 0h121l-6 7-3 7-1 6-1-3h-110l-5-5v-6z" fill="#6666EC"/>
<path transform="translate(696,540)" d="m0 0 9 6 7 2-3 8h38v4h-41l-3 9-4 7-3 7-3 8h-2l-1 5-14 29-11 23-10-6-5-1 2-6 14-30 18-38 9-20z" fill="#4340A6"/>
<path transform="translate(593,310)" d="m0 0h100l1 1v18h-102v-18z" fill="#F9F9FA"/>
<path transform="translate(500,336)" d="m0 0h83l1 1-1 9-65 1-1 47-15 4-6 2v-61z" fill="#FBC244"/>
<path transform="translate(462,510)" d="m0 0h9l6 3 3 5 1 10 3-3h3v7l-4 13-3 15-9 14-3 11-3-1-4-14-5-9-2-7-9-12-4-5 1-3 5 1-1-5v-13l8-5z" fill="#FBC244"/>
<path transform="translate(860,420)" d="m0 0h135l5 5-1 5-2 2-5 1h-147l-4-3v-7l1-2z" fill="#423FA4"/>
<path transform="translate(1146,491)" d="m0 0h12l4 29 6 21 4 10 8 17 11 16 16 16v5l-9 8-7 3-21 21-1-22-2-4 15-1 4-4v-19l-10-11-10-15-8-15-6-16-4-16-2-18z" fill="#5C59D6"/>
<path transform="translate(1224,100)" d="m0 0h3l-1 8-3 10h4l-1 6 6 2 6 4-2 3-19 7-5-1-11-6-9 2-30 11-44 16-2 7-2 2-10-2-6-2 2-5 8-10h7l1 5 79-29h3l2-11 3-8 18-8z" fill="#FAC244"/>
<path transform="translate(572,695)" d="m0 0h36l-9 23v8h-75l-3-4 14-3 15-6 12-7 6-5z" fill="#A1A4FC"/>
<path transform="translate(1094,144)" d="m0 0 10 1 6 3 3 4-6 2-8 11v2l12 3 4-1 3-8h1v12l-2 5-6 7-7 4h-11l-8-2v-2l-4-2-4-5-3-7v-10l4-8 7-6 3-2z" fill="#F6F6FA"/>
<path transform="translate(437,484)" d="m0 0h9l14 3 9 4 9 6 4 5 3 7v16l-2 3h-2l-3-12-4-4-3-1h-9l-10 3-5 3v18l-5-2-3-9-3-14v-9h3l-4-8v-2l5 1-3-5z" fill="#4441A8"/>
<path transform="translate(1029,672)" d="m0 0h36v35l-36 1z" fill="#9DB2FA"/>
<path transform="translate(1030,707)" d="m0 0h35v36h-35z" fill="#4340A7"/>
<path transform="translate(958,672)" d="m0 0h35v36h-35z" fill="#4340A7"/>
<path transform="translate(995,636)" d="m0 0h33l1 1v35h-35v-35z" fill="#9DB2FA"/>
<path transform="translate(562,420)" d="m0 0h52l8 9 6 8v2h-64l-1-1-2-12-1-4z" fill="#F5F6FA"/>
<path transform="translate(1053,554)" d="m0 0h25l1 49 1 2-5-2-20-14-6-4 4-20z" fill="#333081"/>
<path transform="translate(1261,491)" d="m0 0h12v10l-2 16-7 23-8 17-10 15-9 11-8 8-8 6h-2l1-4 4-5 5-5 8-12 6-10 5-10 7-21 4-20z" fill="#5C59D6"/>
<path transform="translate(436,653)" d="m0 0h5l1 4 15 3 9 3h13l5-2 11 2 2 2v8l-12 5-9 2h-16l-15-3-8-3z" fill="#4340A6"/>
<path transform="translate(707,512)" d="m0 0h8l8 4 5 8 1 9-3 7-7 6-8 2-8-2-7-6-2-5v-11l4-7 6-4z" fill="#FBC244"/>
<path transform="translate(1029,708)" d="m0 0h1v35h34v1h-70v-29l5 5 6-1 7-1h7l1-1h6l2 2z" fill="#7576EA"/>
<path transform="translate(563,438)" d="m0 0h66l10 12v2h-77z" fill="#A0A3FC"/>
<path transform="translate(592,352)" d="m0 0h102v9h-102z" fill="#E8ECFA"/>
<path transform="translate(598,395)" d="m0 0 4 2 11 14 14 17 8 10 13 16 11 14 26 32 11 14 2 5-3 2-9-11-8-10-11-14-11-13-9-12-11-13-11-14-11-13-51-1 5-5 42 1-11-14-3-4v-2z" fill="#4643AB"/>
<path transform="translate(1101,435)" d="m0 0h1l1 43 3 3v7l-2 2 1 6 11 20v5l-2 2h-29l-2-2 1-5 11-23 1-4h-2l-1-7 5-5h3z" fill="#6B6BEE"/>
<path transform="translate(647,641)" d="m0 0h8l8 5 4 6v10l-4 7-1 24h-2v-22l-4 2h-10l-6-4-4-6-1-3v-7l4-7z" fill="#FAC54D"/>
<path transform="translate(677,451)" d="m0 0 12 1 3 3v42l-5-5-9-11-13-16-9-12v-1z" fill="#6565EC"/>
<path transform="translate(572,695)" d="m0 0h36l-7 18-1 1h-49l3-3 12-8z" fill="#6969ED"/>
<path transform="translate(393,714)" d="m0 0 10 2v6l2 5-10 8-9 9-5 3-4 1h-11l-1-1v-7l5-10 8-6 14-9z" fill="#4340A6"/>
<path transform="translate(500,708)" d="m0 0 6 1 10 9 15 13 4 5 4 11-1 5h-7l-12-5-8-9-7-8v-4h2l2-6v-6l-4-3-4-2z" fill="#4340A7"/>
<path transform="translate(496,414)" d="m0 0 6 5 7 8 7 7 7 8 9 9v2l-9 3-10-2-8-7-3-6-6-2z" fill="#FBC244"/>
<path transform="translate(593,310)" d="m0 0h100v1h-76v17h65v1h-90v-18z" fill="#ADBEFC"/>
<path transform="translate(990,523)" d="m0 0h11l7 6 1 2v10l-4 6-2 2-4 1h-8l-5-3-4-5v-11l6-7z" fill="#F8F8FA"/>
<path transform="translate(587,396)" d="m0 0 9 1 14 17v2h-42l4-8 1-7 10-4z" fill="#F7F7FA"/>
<path transform="translate(498,399)" d="m0 0 7 3 1 9 6 9 7 6 3 6 10 9 8 10v3l2 1-5 3-3-3v-2h-2l-7-8-9-9-7-8-7-7-7-8-6-6 1-3z" fill="#423FA4"/>
<path transform="translate(1017,520)" d="m0 0 5 2 11 11 6 12 1 9h-27l2-4 1-1z" fill="#F8F8FA"/>
<path transform="translate(591,479)" d="m0 0h58l3 3-1 5-1 1h-60l-2-3 1-5z" fill="#FAFAFA"/>
<path transform="translate(608,393)" d="m0 0h139v4h-136z" fill="#6462E0"/>
<path transform="translate(1187,589)" d="m0 0 4 2 11 8 1 4-4 5-9 7-11 11-8 11h-1l-1-22-2-4 15-1 4-4z" fill="#F3F3FA"/>
<path transform="translate(592,372)" d="m0 0 6 1 6 5 2 9-3 6-7 4-7-1-5-3-12 3-2-5 10-4h2v-7l5-6z" fill="#FBC244"/>
<path transform="translate(437,484)" d="m0 0h9l14 3 8 3-1 5-8 4-11 4-5 5-2 7-4-1-1-4v-9h3l-4-8v-2l5 1-3-5z" fill="#5C58D6"/>
<path transform="translate(627,416)" d="m0 0h120v4l-117 1z" fill="#6664E1"/>
<path transform="translate(993,707)" d="m0 0h35l1 1v14l-3-4h-6l-1 1h-12l-5 2-5-1-2-2-1 25h-1z" fill="#A1A4FD"/>
<path transform="translate(643,671)" d="m0 0 3 1h10l4-1v22l2 1h-20z" fill="#4644AC"/>
<path transform="translate(797,148)" d="m0 0h6l1 1v9l-1 11-3 5-3 2-5-1-2-2-1-10 3-10z" fill="#FBC244"/>
<path transform="translate(1094,156)" d="m0 0 9 1-4 10 8 2-1 4-4 4-2 1h-6l-6-4-2-5v-6l5-6z" fill="#6B6CED"/>
<path transform="translate(567,415)" d="m0 0h44l3 5h-51z" fill="#6969EB"/>
<path transform="translate(1189,585)" d="m0 0h4l7 8 7 7v5l-9 8-7 3-12 12v-3l14-14 8-6 1-4-5-5-10-7v-2h2z" fill="#6E6FEC"/>
<path transform="translate(704,486)" d="m0 0h43v4h-43z" fill="#6361E1"/>
<path transform="translate(704,463)" d="m0 0h43v4h-40l-3-1z" fill="#6A6BEC"/>
<path transform="translate(704,626)" d="m0 0h43v4h-37l-6-1z" fill="#7071EE"/>
<path transform="translate(708,509)" d="m0 0h39v4h-44l-1-3z" fill="#605DD9"/>
<path transform="translate(708,555)" d="m0 0 39 1v4h-40z" fill="#6463E8"/>
<path transform="translate(795,128)" d="m0 0h9l10 3 3 3-1 1-34-1 5-4z" fill="#F8F8FA"/>
<path transform="translate(698,440)" d="m0 0h50v3h-47z" fill="#5D59D9"/>
<path transform="translate(704,603)" d="m0 0h43v3h-43z" fill="#5C58D7"/>
<path transform="translate(704,580)" d="m0 0h43v3h-43z" fill="#605EE1"/>
<path transform="translate(438,629)" d="m0 0h13l11 3 4 2 8-1 9-3 6-1h10v1l-16 3-11 4h-7l-11-4-16-3z" fill="#EFF0FA"/>
<path transform="translate(995,707)" d="m0 0h33v2l-4 2h-12l-16-1-2 3v-5z" fill="#858AEF"/>
<path transform="translate(360,478)" d="m0 0 7 1 1 1v7l-4 3-4-1-3-3v-5z" fill="#FBC244"/>
<path transform="translate(342,478)" d="m0 0h5l3 4-1 6-3 2-5-1-2-2v-6z" fill="#FAFAFA"/>
<path transform="translate(378,478)" d="m0 0h6l3 4-1 5-2 2h-6l-2-2v-6z" fill="#4542AB"/>
<path transform="translate(1098,436)" d="m0 0h2l1 28v13h-3z" fill="#423FA5"/>
<path transform="translate(1037,554)" d="m0 0h4v14l-3 11h-1z" fill="#4340A6"/>
<path transform="translate(541,458)" d="m0 0 5 1 7 3 1 4-5 4-7-7z" fill="#423FA5"/>
<path transform="translate(728,533)" d="m0 0h19v4h-19z" fill="#7475ED"/>
<path transform="translate(1217,595)" d="m0 0h2l1 3-2 2v5l8 6-3 1-6-3-4-3v-7z" fill="#7374F0"/>
<path transform="translate(718,509)" d="m0 0h29v4h-12l-3-1v-2h-14z" fill="#7E7FF3"/>
<path transform="translate(580,387)" d="m0 0h2l2 5-10 4-3-1-1-4z" fill="#F3F3FA"/>
<path transform="translate(1228,617)" d="m0 0 7 6 5 5 1 5 7 12-1 4-8-15-9-13z" fill="#6666ED"/>
<path transform="translate(582,392)" d="m0 0 5 2 2 2-12 4-4-1 1-4z" fill="#5553BF"/>
<path transform="translate(579,383)" d="m0 0h3v4l-13 5-1-3-3-1z" fill="#4947B1"/>
<path transform="translate(734,626)" d="m0 0h13v3h-24l4-2h6z" fill="#6261E5"/>
<path transform="translate(692,518)" d="m0 0 3 2v15l1 8-3 5-1-2z" fill="#B6BBFB"/>
<path transform="translate(704,603)" d="m0 0h11l8 2v1h-19z" fill="#6565EC"/>
<path transform="translate(731,440)" d="m0 0h17v3h-9l-8-2z" fill="#6867E9"/>
<path transform="translate(739,580)" d="m0 0h8v3h-15l1-2z" fill="#6564EB"/>
<path transform="translate(438,629)" d="m0 0h13l7 3-4 1-16-3z" fill="#F2F3FA"/>
<path transform="translate(740,417)" d="m0 0h7v3h-13l1-2z" fill="#6464EA"/>
<path transform="translate(1224,588)" d="m0 0 2 3-2 4-5 2 1-4z" fill="#6564E4"/>
<path transform="translate(457,631)" d="m0 0 9 3 3 2-4 1-7-3z" fill="#E9EAFA"/>
<path transform="translate(693,536)" d="m0 0h2l1 7-3 5-1-2z" fill="#A1ADFB"/>
</svg>
